<svg width="10" height="10" viewBox="0 0 10 10" fill="none" xmlns="http://www.w3.org/2000/svg">
<path d="M5.00003 0.803467C6.92324 0.803467 8.48217 2.3624 8.48217 4.28561C8.48217 5.75704 7.44824 7.36061 5.40717 9.11347C5.29368 9.21096 5.14898 9.26451 4.99936 9.26438C4.84974 9.26425 4.70513 9.21045 4.59181 9.11275L4.45681 8.99561C2.5061 7.28847 1.51788 5.72418 1.51788 4.28561C1.51788 2.3624 3.07681 0.803467 5.00003 0.803467ZM5.00003 2.94632C4.64482 2.94632 4.30417 3.08743 4.05301 3.33859C3.80184 3.58976 3.66074 3.93041 3.66074 4.28561C3.66074 4.64081 3.80184 4.98146 4.05301 5.23263C4.30417 5.48379 4.64482 5.6249 5.00003 5.6249C5.35523 5.6249 5.69588 5.48379 5.94704 5.23263C6.19821 4.98146 6.33931 4.64081 6.33931 4.28561C6.33931 3.93041 6.19821 3.58976 5.94704 3.33859C5.69588 3.08743 5.35523 2.94632 5.00003 2.94632Z" fill="white"/>
</svg>
