<?xml version="1.0" encoding="UTF-8"?>
<svg version="1.1" xmlns="http://www.w3.org/2000/svg" width="512" height="512">
<path d="M0 0 C1.02179855 0.00081573 1.02179855 0.00081573 2.0642395 0.00164795 C13.41996988 0.04321175 24.11400692 0.97974842 35 4.375 C35.6904541 4.58930664 36.3809082 4.80361328 37.09228516 5.02441406 C52.76608158 10.07147202 66.39221548 17.85481475 79 28.375 C79.89589844 29.1175 80.79179687 29.86 81.71484375 30.625 C99.85880099 46.28080286 112.55924545 68.46667521 119 91.375 C119.48146484 93.08236328 119.48146484 93.08236328 119.97265625 94.82421875 C124.26724184 113.3009242 124.12499927 135.08333593 119 153.375 C118.68289063 154.56867188 118.36578125 155.76234375 118.0390625 156.9921875 C113.41680222 172.49806773 105.37290717 186.99383904 95 199.375 C94.30519531 200.220625 93.61039062 201.06625 92.89453125 201.9375 C83.4815048 212.91079131 72.50721529 221.23029305 60 228.375 C59.36030273 228.74125488 58.72060547 229.10750977 58.06152344 229.48486328 C56.37531123 230.44992547 54.6877744 231.41267249 53 232.375 C53.54527344 233.44983643 53.54527344 233.44983643 54.1015625 234.54638672 C55.73851669 237.77884658 57.36932879 241.01436636 59 244.25 C59.57234375 245.37792969 60.1446875 246.50585938 60.734375 247.66796875 C61.27578125 248.74433594 61.8171875 249.82070312 62.375 250.9296875 C63.12910156 252.42218018 63.12910156 252.42218018 63.8984375 253.94482422 C65 256.375 65 256.375 65 258.375 C65.680625 257.67375 66.36125 256.9725 67.0625 256.25 C68.03807589 255.28801152 69.01754216 254.32995902 70 253.375 C70.49628906 252.88257813 70.99257813 252.39015625 71.50390625 251.8828125 C81.52127797 242.56544988 92.75459874 241.188924 105.875 241.125 C106.92558594 241.104375 107.97617187 241.08375 109.05859375 241.0625 C116.99563126 241.02276514 122.55082187 242.0534378 129.25 246.5625 C136.44212426 253.91808163 137.25398875 262.05834041 137.2487793 271.94067383 C137.12312425 280.39029781 135.26482637 286.24939199 129 292.375 C121.6125282 297.2699874 114.07354435 297.03841888 105.5 297.125 C104.09110984 297.15320374 102.68225319 297.18313723 101.2734375 297.21484375 C97.84890123 297.28521093 94.42503295 297.33807585 91 297.375 C91.4019458 297.95870361 91.8038916 298.54240723 92.21801758 299.14379883 C102.45861673 314.21735356 105.48976251 329.81119858 105.3984375 347.87109375 C105.40046744 349.317308 105.40338643 350.76352124 105.40713501 352.20973206 C105.41151669 355.2174774 105.40526463 358.22495252 105.39111328 361.23266602 C105.37403923 365.04241483 105.38387768 368.85152838 105.40183067 372.66125393 C105.41279575 375.6411446 105.40916452 378.62089061 105.4014473 381.60078621 C105.39947938 383.00347028 105.40178099 384.40616853 105.40888596 385.80883598 C105.48601311 405.30585938 100.82576196 421.99874144 90 438.375 C89.14865479 439.21466309 88.29730957 440.05432617 87.42016602 440.91943359 C83.96712349 445.05036725 84.34109793 449.27867199 84.43359375 454.453125 C84.42795914 455.4197406 84.42232452 456.3863562 84.41651917 457.38226318 C84.40010557 460.46367184 84.41556262 463.54364209 84.4375 466.625 C84.45417081 469.69194547 84.46306539 472.75792841 84.44776917 475.82489014 C84.43859425 477.72825466 84.44729606 479.63182462 84.47740173 481.53497314 C84.4425255 490.11540832 81.9892151 498.4943066 75.88867188 504.78710938 C65.39154042 513.61251566 54.3515003 513.31210864 41.24609375 513.15722656 C38.0060996 513.12506056 34.77109221 513.15702346 31.53125 513.1953125 C10.72441934 513.23835331 10.72441934 513.23835331 2 506.375 C-9.14251438 495.10088112 -8 484.90881235 -8 468.375 C-75.65 468.375 -143.3 468.375 -213 468.375 C-213 475.305 -213 482.235 -213 489.375 C-215.49409071 498.3920972 -219.4850046 504.57617551 -227.6875 509.25 C-231.71502851 511.35071435 -235.03008438 512.49602521 -239.58813477 512.56787109 C-240.51662735 512.58393402 -241.44511993 512.59999695 -242.40174866 512.61654663 C-246.66276176 512.66125147 -250.92362108 512.7020961 -255.18481445 512.72509766 C-257.42417835 512.7416076 -259.66349063 512.76883136 -261.90258789 512.80712891 C-265.14496989 512.86225923 -268.38611686 512.88383126 -271.62890625 512.8984375 C-272.61782364 512.92110687 -273.60674103 512.94377625 -274.62562561 512.96713257 C-283.02203231 512.9419578 -289.38959829 510.42378367 -295.8125 505 C-296.534375 504.13375 -297.25625 503.2675 -298 502.375 C-298.44085938 501.85035156 -298.88171875 501.32570313 -299.3359375 500.78515625 C-304.87023394 493.73132754 -305.27189078 486.20486257 -305.16796875 477.5390625 C-305.17364567 475.65103662 -305.18085459 473.76301484 -305.18945312 471.875 C-305.19362134 468.93665152 -305.18749668 465.99970415 -305.15454102 463.06152344 C-304.91573715 447.37665419 -304.91573715 447.37665419 -313 434.375 C-314.56432767 431.89317187 -315.88785587 429.31613176 -317.1875 426.6875 C-317.52209229 426.01396484 -317.85668457 425.34042969 -318.20141602 424.64648438 C-324.78597923 410.8707372 -326.15228108 396.72165824 -326.203125 381.62890625 C-326.20595238 380.97344252 -326.20877975 380.31797878 -326.21169281 379.64265251 C-326.22661562 376.1671192 -326.2358861 372.69162658 -326.24023438 369.21606445 C-326.24460217 366.37966935 -326.25843679 363.54358133 -326.28125 360.70727539 C-326.63330275 316.01520072 -326.63330275 316.01520072 -313 296.375 C-313.6798999 296.39071045 -314.3597998 296.4064209 -315.06030273 296.42260742 C-318.18594815 296.48555057 -321.31145958 296.52417726 -324.4375 296.5625 C-326.04141602 296.60020508 -326.04141602 296.60020508 -327.67773438 296.63867188 C-336.67497538 296.72121537 -344.76578587 295.65969287 -351.4921875 289.19921875 C-356.68892704 282.91197169 -357.35448376 276.13251254 -357.4375 268.25 C-357.4528479 267.12223145 -357.4528479 267.12223145 -357.46850586 265.97167969 C-357.35104953 258.4709019 -355.34829277 251.87610114 -350 246.375 C-342.52374783 240.5601372 -335.45326673 240.00784902 -326.3125 240.0625 C-325.33442383 240.06813965 -324.35634766 240.0737793 -323.34863281 240.07958984 C-309.72584998 240.3082208 -298.74539035 243.47851136 -288.875 253.25 C-287.90588252 254.28164119 -286.94307807 255.31950203 -286 256.375 C-283.88343863 253.68612306 -282.22066387 251.04540724 -280.72265625 247.97143555 C-280.08553711 246.67178108 -280.08553711 246.67178108 -279.43554688 245.34587097 C-278.75588867 243.94296562 -278.75588867 243.94296562 -278.0625 242.51171875 C-277.58232422 241.52871292 -277.10214844 240.54570709 -276.60742188 239.53291321 C-275.06767092 236.37801418 -273.53386161 233.22026578 -272 230.0625 C-270.99906401 228.01088906 -269.99776528 225.95945505 -268.99609375 223.90820312 C-264.94092591 215.59311022 -260.89172132 207.27628772 -256.9375 198.91259766 C-256.44378906 197.87053665 -255.95007813 196.82847565 -255.44140625 195.75483704 C-254.50748765 193.78009709 -253.57754341 191.80347065 -252.65234375 189.82463074 C-246.97453417 177.82148137 -240.06072544 169.58899783 -227.47265625 164.31640625 C-225.3224843 163.56867591 -223.21026908 162.91714147 -221 162.375 C-220.33523148 162.20376114 -219.67046295 162.03252228 -218.98554993 161.85609436 C-214.71011125 161.1671461 -210.48531408 161.19654278 -206.16088867 161.16967773 C-205.17504791 161.15977814 -204.18920715 161.14987854 -203.17349243 161.13967896 C-199.92167546 161.10814383 -196.66984389 161.08333807 -193.41796875 161.05859375 C-191.16066615 161.03801733 -188.90336734 161.01702068 -186.64607239 160.99562073 C-180.70971757 160.94047114 -174.77332838 160.89103048 -168.83691406 160.84277344 C-162.7773127 160.79250647 -156.71776114 160.73684753 -150.65820312 160.68164062 C-138.77217798 160.57414605 -126.88610956 160.47268176 -115 160.375 C-115.27424805 159.36977295 -115.54849609 158.3645459 -115.83105469 157.32885742 C-116.19479693 155.98359782 -116.55839606 154.63829952 -116.921875 153.29296875 C-117.10218262 152.633573 -117.28249023 151.97417725 -117.46826172 151.2947998 C-125.73439764 120.5987494 -120.56345333 87.81680401 -105.109375 60.26123047 C-88.21696456 31.53967169 -61.61099445 12.22124752 -29.64453125 3.234375 C-19.67080339 0.88258494 -10.26392877 -0.01386932 0 0 Z M-71.66796875 46.1171875 C-91.06810794 64.89990183 -102.73701695 90.74729762 -103.29248047 117.84741211 C-103.5102653 148.06372943 -92.61450902 174.28281566 -71.6875 196.125 C-57.42936535 209.88390024 -39.98316569 218.34944595 -21 223.375 C-20.11699219 223.62121094 -19.23398437 223.86742187 -18.32421875 224.12109375 C6.88906179 229.9519162 35.21538071 223.24067603 56.90795898 209.86181641 C62.45667521 206.26541213 67.30907286 202.02920756 72 197.375 C72.845625 196.570625 73.69125 195.76625 74.5625 194.9375 C75.366875 194.091875 76.17125 193.24625 77 192.375 C77.98033203 191.38693359 77.98033203 191.38693359 78.98046875 190.37890625 C89.34988564 179.50975842 96.29700361 166.57826665 101 152.375 C101.41378906 151.14136719 101.82757813 149.90773437 102.25390625 148.63671875 C109.7480801 123.58368611 105.60899215 96.3363974 94 73.375 C93.46503906 72.31667969 92.93007813 71.25835937 92.37890625 70.16796875 C78.65293573 45.05306346 55.10348273 28.68634296 28.3125 20.0625 C-8.25837264 10.47354248 -44.25696264 20.64869364 -71.66796875 46.1171875 Z M-233 189.375 C-234.8976664 192.08499373 -236.37241426 194.90075892 -237.8125 197.875 C-238.2264502 198.69468262 -238.64040039 199.51436523 -239.06689453 200.35888672 C-240.40084479 203.02029479 -241.70403174 205.6949089 -243 208.375 C-243.43715332 209.27379883 -243.87430664 210.17259766 -244.32470703 211.09863281 C-247.10716894 216.83447203 -249.84531935 222.59068104 -252.5703125 228.35400391 C-254.99213564 233.47142869 -257.43036163 238.58093988 -259.875 243.6875 C-260.60614014 245.21528076 -260.60614014 245.21528076 -261.35205078 246.77392578 C-265.78941965 256.00845018 -270.36687954 265.16992109 -274.98779297 274.3137207 C-275.51260254 275.35488037 -276.03741211 276.39604004 -276.578125 277.46875 C-277.04637695 278.39365234 -277.51462891 279.31855469 -277.99707031 280.27148438 C-279.07172879 282.13704611 -279.07172879 282.13704611 -279 283.375 C-167.46 283.375 -55.92 283.375 59 283.375 C51.15034671 266.76924335 51.15034671 266.76924335 43.125 250.25 C42.57070313 249.10402344 42.01640625 247.95804687 41.4453125 246.77734375 C40.6409375 245.15119141 40.6409375 245.15119141 39.8203125 243.4921875 C39.34867676 242.52909668 38.87704102 241.56600586 38.39111328 240.57373047 C37.1295958 238.06674106 37.1295958 238.06674106 34 237.375 C31.92181559 237.75595309 29.85951879 238.22684631 27.8125 238.75 C-4.00032676 246.82585401 -35.9527988 239.33790477 -63.95703125 223.7265625 C-76.57070885 216.15466233 -93.18606378 203.6736355 -98.61854553 189.49711609 C-100.37745209 185.14530931 -102.25731196 181.33789051 -106 178.375 C-113.64208968 175.57939599 -122.3804555 176.53753774 -130.37109375 176.76953125 C-132.77804428 176.78737947 -135.18504695 176.79913953 -137.59205627 176.80509949 C-142.62961433 176.83257717 -147.66315718 176.90848289 -152.69946289 177.02368164 C-159.13654503 177.17061216 -165.57091389 177.23571097 -172.00949001 177.26929188 C-178.172051 177.3044759 -184.33395537 177.37855986 -190.49609375 177.45703125 C-191.66275511 177.46909922 -192.82941647 177.48116718 -194.0314312 177.49360085 C-197.35565827 177.53550731 -200.67815785 177.60475743 -204.00170898 177.68286133 C-205.45541649 177.69663818 -205.45541649 177.69663818 -206.93849182 177.71069336 C-217.35359755 178.01905673 -226.0185749 181.53593019 -233 189.375 Z M-339 259.375 C-340.46769227 262.31038453 -340.28669649 264.98277016 -340.375 268.25 C-340.42398437 269.48492187 -340.47296875 270.71984375 -340.5234375 271.9921875 C-340.31049288 275.44250212 -340.31049288 275.44250212 -337.99707031 277.55541992 C-334.14971364 279.8912255 -330.89115965 279.93447848 -326.5234375 279.87109375 C-325.7163736 279.87254898 -324.90930969 279.87400421 -324.07778931 279.87550354 C-322.37832006 279.87384882 -320.67883516 279.86233537 -318.97949219 279.84155273 C-316.37630842 279.8125146 -313.77515221 279.82096799 -311.171875 279.83398438 C-309.51821926 279.82774896 -307.86456995 279.81935956 -306.2109375 279.80859375 C-305.04369644 279.81299721 -305.04369644 279.81299721 -303.85287476 279.81748962 C-299.67316346 279.7625846 -299.67316346 279.7625846 -295.9831543 277.99609375 C-294.78720495 276.35289133 -294.78720495 276.35289133 -295.05859375 274.00390625 C-297.34036708 267.63198323 -303.24577677 261.93247822 -309.1875 258.8125 C-314.68375378 256.30984849 -320.61261123 256.19704709 -326.5625 256.125 C-327.84253906 256.09921875 -329.12257813 256.0734375 -330.44140625 256.046875 C-334.19287384 256.3927842 -336.03803068 257.10250212 -339 259.375 Z M82.1484375 264.30859375 C79.54325911 267.23003865 77.17349423 270.11475865 75 273.375 C75.34605611 275.65897032 75.96704519 277.30909037 77 279.375 C82.32017615 279.47406509 87.63981247 279.54656072 92.96069336 279.59472656 C94.7697078 279.61481053 96.57865757 279.64208341 98.38745117 279.67675781 C100.99153621 279.72541892 103.59476115 279.74800051 106.19921875 279.765625 C107.00461594 279.78627014 107.81001312 279.80691528 108.63981628 279.82818604 C112.58081851 279.82975186 114.5591839 279.64089701 118.01293945 277.55761719 C120.79754873 274.49896048 120.60363917 272.45147403 120.5 268.375 C120.4896875 267.158125 120.479375 265.94125 120.46875 264.6875 C119.97982801 261.23245125 119.46430724 259.79281087 117 257.375 C105.80945189 253.6448173 90.42676891 255.66350082 82.1484375 264.30859375 Z M-303.0234375 311.59765625 C-309.06122886 324.28399821 -310.15272493 336.05071731 -310.16796875 349.98046875 C-310.17129715 351.06274246 -310.17462555 352.14501617 -310.17805481 353.26008606 C-310.18308949 355.53837666 -310.18546421 357.81667455 -310.18530273 360.0949707 C-310.18748286 363.5354461 -310.20565865 366.97559703 -310.22460938 370.41601562 C-310.28871493 394.78870322 -308.61731429 416.82440264 -290.6875 435.1875 C-280.95313508 444.52236978 -269.38118823 450.4876695 -255.70183468 450.50642776 C-254.64729436 450.51026891 -253.59275404 450.51411005 -252.50625795 450.5180676 C-251.35394121 450.51720112 -250.20162447 450.51633463 -249.01438904 450.51544189 C-247.78535089 450.51841302 -246.55631274 450.52138414 -245.29003102 450.5244453 C-241.88120437 450.53161884 -238.47242813 450.53430409 -235.06359756 450.53504276 C-231.38584256 450.53689579 -227.70809843 450.54444448 -224.03034973 450.55117798 C-215.98877574 450.56475282 -207.94720674 450.57078495 -199.9056232 450.57518864 C-194.88171772 450.57795299 -189.85781417 450.58219075 -184.83390999 450.58669281 C-170.91706049 450.59888531 -157.00021253 450.60918405 -143.08335781 450.6125679 C-142.19283356 450.61278747 -141.30230932 450.61300703 -140.38479948 450.61323325 C-139.4921712 450.61345153 -138.59954292 450.61366981 -137.6798653 450.6138947 C-135.8711309 450.61433816 -134.06239651 450.61478473 -132.25366211 450.61523438 C-131.35647168 450.6154558 -130.45928125 450.61567723 -129.53490324 450.61590537 C-115.00655321 450.61985096 -100.47825342 450.63729774 -85.94992279 450.6605939 C-71.02450077 450.68433301 -56.09910392 450.69677095 -41.17366272 450.69793582 C-32.79744834 450.69885124 -24.42129939 450.70456986 -16.04510307 450.72275543 C-8.91043588 450.73819113 -1.77585432 450.74325655 5.35882641 450.73501733 C8.99576588 450.73112281 12.6325331 450.73198132 16.26945114 450.74607468 C20.22154196 450.76124853 24.17339319 450.75291143 28.12550354 450.74249268 C29.26220523 450.75054908 30.39890692 450.75860548 31.57005411 450.76690602 C47.4229124 450.66952683 60.18841086 445.7126867 71.71484375 434.7890625 C87.5642229 418.04561581 90.1041921 397.68540516 90.23828125 375.6328125 C90.246353 374.34744598 90.25442474 373.06207947 90.26274109 371.73776245 C90.27763726 369.03334702 90.2875386 366.32895655 90.29516602 363.62451172 C90.30623209 360.1966686 90.34068878 356.76947406 90.38033772 353.34185982 C90.41307751 350.02220675 90.41730144 346.70261423 90.42578125 343.3828125 C90.45204338 341.56657883 90.45204338 341.56657883 90.47883606 339.71365356 C90.44786764 327.38417278 87.29857965 316.39838271 80 306.375 C79.51942188 305.51603874 79.51942188 305.51603874 79.02913511 304.63972473 C76.79686874 301.25583341 75.07384944 299.61331305 71.04813313 298.71990967 C67.15694458 298.46234378 63.29587841 298.43143685 59.39956665 298.47265625 C57.88626669 298.46315624 56.37298329 298.4506123 54.85973108 298.43528938 C50.70401006 298.40217386 46.54937394 298.41276659 42.39360142 298.43060923 C37.9107946 298.44232217 33.42821723 298.41383417 28.94548035 298.39059448 C20.16435197 298.3517347 11.38361708 298.35106053 2.60242821 298.36443293 C-4.53460465 298.37477041 -11.67152201 298.37219846 -18.80855179 298.3604126 C-19.82398664 298.35876252 -20.83942149 298.35711244 -21.8856271 298.35541236 C-23.94843107 298.35202971 -26.01123502 298.3486288 -28.07403894 298.34520984 C-47.42336493 298.31489469 -66.77246905 298.3290721 -86.12178524 298.35738063 C-103.82478743 298.38200763 -121.52724895 298.35444696 -139.23017542 298.30167627 C-157.40558133 298.24790265 -175.58073662 298.22730838 -193.75621951 298.2435112 C-195.81208519 298.24523776 -197.86795091 298.24691261 -199.92381668 298.24853516 C-200.93534953 298.24933366 -201.94688237 298.25013216 -202.98906773 298.25095487 C-210.1163606 298.25442059 -217.24341018 298.23626481 -224.37064743 298.20947266 C-233.05846518 298.17724691 -241.74558528 298.17668082 -250.43338154 298.21689522 C-254.86612921 298.23656924 -259.29763981 298.2418139 -263.73032951 298.20794296 C-267.78992009 298.17731538 -271.84720228 298.18836212 -275.9066499 298.23239899 C-277.3736201 298.24105194 -278.84077541 298.23457469 -280.30758648 298.2112999 C-292.56918175 298.03071305 -296.71042177 301.54314278 -303.0234375 311.59765625 Z M-289 457.375 C-289.08760181 461.56236668 -289.14059435 465.74949531 -289.1875 469.9375 C-289.21263672 471.11892578 -289.23777344 472.30035156 -289.26367188 473.51757812 C-289.32425957 480.72751428 -289.30830711 486.34356565 -284.5703125 492.1171875 C-277.63098886 497.55611684 -269.87284431 496.59257972 -261.4453125 496.61523438 C-259.27043958 496.62490908 -257.09652541 496.65595475 -254.921875 496.6875 C-247.44658793 496.74499561 -240.93313097 496.49937232 -234 493.375 C-230.94478594 490.31978594 -229.12708249 487.70867185 -228.88647461 483.2902832 C-228.89171143 482.50999756 -228.89694824 481.72971191 -228.90234375 480.92578125 C-228.90556641 480.07822266 -228.90878906 479.23066406 -228.91210938 478.35742188 C-228.92048828 477.47634766 -228.92886719 476.59527344 -228.9375 475.6875 C-228.94201172 474.79482422 -228.94652344 473.90214844 -228.95117188 472.98242188 C-228.96295017 470.77988013 -228.97939836 468.57747401 -229 466.375 C-229.99217529 466.36041748 -230.98435059 466.34583496 -232.0065918 466.33081055 C-235.75122943 466.2720479 -239.4953136 466.19483455 -243.23950195 466.11254883 C-244.84813331 466.07966068 -246.45687009 466.05152141 -248.06567383 466.02856445 C-262.89482226 465.81137219 -275.36366809 463.59120176 -289 457.375 Z M63.5 460.1875 C54.18023309 464.95732626 44.48945493 466.43813015 34.09765625 466.69140625 C33.01380898 466.7225779 33.01380898 466.7225779 31.9080658 466.75437927 C29.6262963 466.81915426 27.34442333 466.8784203 25.0625 466.9375 C23.50454709 466.98075397 21.9466042 467.02437031 20.38867188 467.06835938 C16.59255078 467.17476039 12.79632686 467.27622499 9 467.375 C8.89123018 470.23020781 8.81233534 473.08120561 8.75 475.9375 C8.71648437 476.73736328 8.68296875 477.53722656 8.6484375 478.36132812 C8.55243793 484.24130165 9.5965506 487.55292818 13 492.375 C19.86203611 497.65348932 28.43504327 496.56121936 36.66455078 496.56030273 C38.86120061 496.56248628 41.05734527 496.58066078 43.25390625 496.59960938 C44.66666497 496.60254457 46.07942605 496.60452852 47.4921875 496.60546875 C48.76433105 496.60957764 50.03647461 496.61368652 51.34716797 496.61791992 C55.95711321 496.31135024 60.32559629 495.75921821 63.9609375 492.75390625 C64.42757812 492.15449219 64.89421875 491.55507813 65.375 490.9375 C66.09816406 490.04224609 66.09816406 490.04224609 66.8359375 489.12890625 C69.1761812 485.60283437 69.11768403 482.50022596 69.09765625 478.39453125 C69.09443359 477.23115234 69.09121094 476.06777344 69.08789062 474.86914062 C69.07951172 473.65419922 69.07113281 472.43925781 69.0625 471.1875 C69.05798828 469.96095703 69.05347656 468.73441406 69.04882812 467.47070312 C69.03703065 464.43875332 69.02056921 461.40690094 69 458.375 C66.63908709 458.22171525 66.63908709 458.22171525 63.5 460.1875 Z " fill="#000000" transform="translate(366,-0.375)"/>
<path d="M0 0 C0.7528125 -0.02191406 1.505625 -0.04382813 2.28125 -0.06640625 C5.67884103 0.89664332 6.71026999 2.57961664 8.5 5.5625 C8.890625 8.89453125 8.890625 8.89453125 8.75 12.375 C8.71390625 13.53644531 8.6778125 14.69789062 8.640625 15.89453125 C8.59421875 16.77496094 8.5478125 17.65539062 8.5 18.5625 C9.655 18.81 10.81 19.0575 12 19.3125 C21.99629625 21.89502293 29.4938986 27.27136503 35.109375 36.08984375 C39.08493534 43.67848687 41.7830667 51.91002459 40.5 60.5625 C39 63.625 39 63.625 36.5 65.5625 C31.70358823 66.3238352 29.72246463 66.33318422 25.625 63.75 C23.06381807 59.90822711 22.73123661 56.85352866 22.08203125 52.3515625 C20.74757516 45.95692057 16.91415018 41.1244409 11.5 37.5625 C10.51 37.2325 9.52 36.9025 8.5 36.5625 C8.5 51.7425 8.5 66.9225 8.5 82.5625 C11.14 83.2225 13.78 83.8825 16.5 84.5625 C26.26462778 88.54869299 33.21814461 95.57915323 37.53515625 105.12890625 C41.35639755 114.76709788 42.11467125 125.69035539 38.5 135.5625 C32.6249014 147.08806108 25.09708629 154.87959411 12.8125 159.5 C11.719375 159.850625 10.62625 160.20125 9.5 160.5625 C9.48582031 161.44292969 9.47164063 162.32335937 9.45703125 163.23046875 C9.06917658 172.67525416 9.06917658 172.67525416 6.375 176.875 C2.67949567 179.04410037 0.71875652 179.31584938 -3.5 178.5625 C-6.375 176.875 -6.375 176.875 -8.5 173.5625 C-9.20807989 169.23010007 -9.42936926 164.94802667 -9.5 160.5625 C-10.20125 160.34335938 -10.9025 160.12421875 -11.625 159.8984375 C-22.75295724 156.17903875 -31.21717833 150.09927068 -36.75 139.5625 C-40.00506749 132.46916543 -41.612732 125.37555371 -40.5 117.5625 C-38.58154459 114.22954164 -37.94013336 113.68475927 -34.125 112.625 C-30.09306429 112.55548387 -28.60876959 113.07548432 -25.5 115.5625 C-23.40284199 118.70823702 -23.18236482 120.10063504 -22.75 123.75 C-21.76972414 129.49487251 -19.83721314 133.61238093 -15.5 137.5625 C-12.035 139.5425 -12.035 139.5425 -8.5 141.5625 C-8.83 126.7125 -9.16 111.8625 -9.5 96.5625 C-13.13 95.2425 -16.76 93.9225 -20.5 92.5625 C-30.1331482 86.28001204 -35.52033822 79.01165444 -39.75 68.4375 C-41.9721366 56.95646093 -41.0268483 45.96843042 -34.875 35.9375 C-28.46174275 27.04067744 -20.91254545 21.9412979 -10.5 18.5625 C-9.84 18.5625 -9.18 18.5625 -8.5 18.5625 C-8.54640625 17.59828125 -8.5928125 16.6340625 -8.640625 15.640625 C-8.69476563 13.74570312 -8.69476563 13.74570312 -8.75 11.8125 C-8.79640625 10.55953125 -8.8428125 9.3065625 -8.890625 8.015625 C-8.5 4.5625 -8.5 4.5625 -6.765625 2.14453125 C-4.26316817 0.39712605 -3.02202854 -0.00517471 0 0 Z M-17.5 41.5625 C-22.62992597 48.19021457 -24.39361095 54.20971985 -23.5 62.5625 C-21.73739868 68.01315301 -18.4677566 72.500273 -14.5 76.5625 C-12.52 77.5525 -10.54 78.5425 -8.5 79.5625 C-8.5 65.0425 -8.5 50.5225 -8.5 35.5625 C-11.62912416 35.5625 -15.30254246 39.59678939 -17.5 41.5625 Z M8.5 99.5625 C8.5 113.7525 8.5 127.9425 8.5 142.5625 C15.11321064 139.91721575 19.31082888 135.50848075 22.4375 129.0625 C24.5858849 121.9854674 23.78952776 116.65632254 20.91015625 109.96875 C18.05469674 105.09627616 13.86165277 101.34971759 8.5 99.5625 Z " fill="#000000" transform="translate(366.5,31.4375)"/>
<path d="M0 0 C3.32787849 3.2370431 5.90463441 6.23775954 6.16113281 10.97753906 C6.19841153 14.34042618 6.23112653 17.70284604 6.24023438 21.06591797 C6.24990135 23.2279362 6.28090494 25.38898776 6.3125 27.55078125 C6.3190343 28.93489021 6.32428309 30.31900595 6.328125 31.703125 C6.3374707 32.95770508 6.34681641 34.21228516 6.35644531 35.50488281 C5.85385393 40.43303232 4.25137028 43.71287628 0.8125 47.25 C-6.87958886 52.03618862 -15.78671172 51.31091152 -24.53515625 51.30078125 C-25.94185002 51.3046757 -27.34854264 51.3090119 -28.75523376 51.31376648 C-31.69110951 51.32119324 -34.62686489 51.32096238 -37.56274414 51.31567383 C-41.31064955 51.30986975 -45.05806229 51.32684955 -48.80588627 51.3500185 C-51.70652609 51.36479889 -54.60704822 51.36562197 -57.50771904 51.36250877 C-58.88911353 51.36301936 -60.27051507 51.36820742 -61.65187263 51.37832069 C-77.34920554 51.4792012 -77.34920554 51.4792012 -83.41015625 45.703125 C-86.64539704 40.20242075 -85.53277499 33.62173634 -84.6328125 27.50390625 C-82.59704994 19.68155831 -76.63979905 13.41305196 -70.03369141 9.03344727 C-65.27413071 6.38041085 -60.19952215 5.35714811 -54.9140625 4.203125 C-53.85770599 3.9646283 -52.80134949 3.72613159 -51.71298218 3.48040771 C-49.48699178 2.980831 -47.25970995 2.48697798 -45.03125 1.99853516 C-41.63946517 1.25317877 -38.25332456 0.48540384 -34.8671875 -0.28515625 C-32.69561336 -0.76957986 -30.52374713 -1.25269627 -28.3515625 -1.734375 C-27.34815826 -1.96243835 -26.34475403 -2.19050171 -25.3109436 -2.42547607 C-16.25768827 -4.38518538 -7.91709846 -5.65753441 0 0 Z M-26.34375 14.828125 C-27.23106812 15.01840271 -28.11838623 15.20868042 -29.03259277 15.40472412 C-30.90249277 15.80833012 -32.77166515 16.21532027 -34.64013672 16.62548828 C-37.48776096 17.24732735 -40.33922417 17.84868171 -43.19140625 18.44921875 C-45.01329269 18.84510512 -46.8349169 19.24220063 -48.65625 19.640625 C-49.50328491 19.81684387 -50.35031982 19.99306274 -51.22302246 20.17462158 C-56.93858015 21.45814297 -61.69971725 23.08466839 -65.4609375 27.8515625 C-67.35426574 31.2476309 -67.35426574 31.2476309 -68 35 C-60.864998 35.02541608 -53.73000773 35.04289467 -46.5949707 35.05493164 C-44.16918501 35.05995129 -41.74340234 35.06676837 -39.31762695 35.07543945 C-35.82502498 35.0876088 -32.33246311 35.0932521 -28.83984375 35.09765625 C-27.76041 35.10281754 -26.68097626 35.10797882 -25.5688324 35.11329651 C-20.26708094 35.1136889 -15.22230264 34.93451731 -10 34 C-9.97111854 30.68751813 -9.95324201 27.37506833 -9.9375 24.0625 C-9.92493164 22.64420898 -9.92493164 22.64420898 -9.91210938 21.19726562 C-9.90888672 20.29814453 -9.90566406 19.39902344 -9.90234375 18.47265625 C-9.89710693 17.64000244 -9.89187012 16.80734863 -9.88647461 15.94946289 C-9.78356708 13.99483202 -9.78356708 13.99483202 -11 13 C-16.31377526 12.62104282 -21.1879576 13.70621849 -26.34375 14.828125 Z " fill="#000000" transform="translate(427,331)"/>
<path d="M0 0 C0.96378571 0.21010208 1.92757141 0.42020416 2.92056274 0.63667297 C4.95027435 1.08215257 6.97902388 1.53203603 9.00683594 1.98608398 C12.08202341 2.67142673 15.1616137 3.33349041 18.2421875 3.99414062 C20.22427074 4.43218252 22.20605241 4.8715917 24.1875 5.3125 C25.09511078 5.50543137 26.00272156 5.69836273 26.93783569 5.8971405 C37.44682449 8.29891669 47.04014434 12.47576009 52.9140625 21.80078125 C57.3206322 29.58307786 58.92771956 37.06009321 57.7265625 45.98828125 C56.06037255 49.71396779 53.72911861 51.58391321 49.92178345 53.11955261 C46.70565928 53.9939645 44.05234051 54.24786981 40.72802734 54.26293945 C39.56596771 54.27247147 38.40390808 54.28200348 37.20663452 54.29182434 C35.96282013 54.29091293 34.71900574 54.29000153 33.4375 54.2890625 C32.14268707 54.29334763 30.84787415 54.29763275 29.51382446 54.30204773 C26.77528789 54.30949091 24.03688024 54.30923448 21.29833984 54.30395508 C17.82213489 54.29819073 14.34646804 54.31502619 10.87035179 54.33829975 C7.51771444 54.35676035 4.16518759 54.35284759 0.8125 54.3515625 C-0.41916901 54.36077225 -1.65083801 54.36998199 -2.91983032 54.37947083 C-13.12675322 54.32563657 -23.30197405 53.74264127 -31.06640625 46.48828125 C-34.79876163 41.85001437 -33.57564999 34.62600197 -33.62353516 28.95678711 C-33.64003525 27.52823528 -33.66724704 26.09976398 -33.70556641 24.67163086 C-34.08640516 10.38024261 -34.08640516 10.38024261 -29.65307617 4.42041016 C-21.13638045 -4.42031486 -10.87204835 -2.42151533 0 0 Z M-17.2734375 14.98828125 C-17.36029353 16.5500087 -17.38045969 18.11557469 -17.37109375 19.6796875 C-17.36787109 20.62392578 -17.36464844 21.56816406 -17.36132812 22.54101562 C-17.35294922 23.53423828 -17.34457031 24.52746094 -17.3359375 25.55078125 C-17.33142578 26.54787109 -17.32691406 27.54496094 -17.32226562 28.57226562 C-17.31043757 31.04432974 -17.29395599 33.51627643 -17.2734375 35.98828125 C-11.78529689 37.13665685 -6.44924014 37.13293876 -0.87109375 37.12109375 C0.12483292 37.12205048 1.12075958 37.1230072 2.14686584 37.12399292 C4.24724389 37.12467158 6.34762406 37.12283924 8.44799805 37.11865234 C11.64962516 37.11330536 14.85111163 37.11860512 18.05273438 37.125 C20.09895864 37.12433905 22.14518282 37.12305755 24.19140625 37.12109375 C25.61827003 37.1241301 25.61827003 37.1241301 27.07395935 37.12722778 C32.06631479 37.10976312 36.80532196 36.8398474 41.7265625 35.98828125 C41.3553125 34.93640625 40.9840625 33.88453125 40.6015625 32.80078125 C40.39273438 32.20910156 40.18390625 31.61742187 39.96875 31.0078125 C36.45359484 25.29292187 32.39099702 23.67744078 26.0703125 22.07421875 C23.45789694 21.48602782 20.84619934 20.91613084 18.2265625 20.36328125 C16.94007813 20.07710938 15.65359375 19.7909375 14.328125 19.49609375 C11.74693387 18.92480396 9.16357547 18.36321678 6.578125 17.81152344 C3.98571228 17.25741494 1.39831695 16.69319626 -1.1875 16.11035156 C-2.42242187 15.83545898 -3.65734375 15.56056641 -4.9296875 15.27734375 C-6.58194336 14.90536865 -6.58194336 14.90536865 -8.26757812 14.52587891 C-13.06035785 13.40078272 -13.06035785 13.40078272 -17.2734375 14.98828125 Z " fill="#000000" transform="translate(112.2734375,329.01171875)"/>
<path d="M0 0 C1.11596558 -0.0071553 2.23193115 -0.01431061 3.38171387 -0.02168274 C7.06926444 -0.038587 10.75560244 -0.0191565 14.44311523 0.00219727 C17.00471599 0.0013688 19.5663167 -0.00108975 22.12791443 -0.00511169 C27.4954469 -0.00797084 32.86255013 0.00621511 38.22998047 0.03417969 C44.43259837 0.06624676 50.63458766 0.06620866 56.83725029 0.04896492 C62.80938355 0.0330948 68.78132412 0.03993295 74.75346184 0.05690193 C77.29283062 0.06209119 79.83221751 0.06159297 82.37158394 0.05535698 C85.91739211 0.04991787 89.4621266 0.0702395 93.0078125 0.09765625 C94.0609111 0.09113037 95.1140097 0.08460449 96.19902039 0.07788086 C103.30089725 0.17143865 103.30089725 0.17143865 106.58921814 2.53944397 C108.75436073 5.89408981 108.74600213 8.77906175 107.93920898 12.63110352 C106.06905804 15.06229974 104.65782553 16.27179524 101.93920898 17.63110352 C100.45546063 17.7295279 98.96739187 17.76613521 97.48039246 17.77154541 C96.54248367 17.77725555 95.60457489 17.7829657 94.63824463 17.78884888 C93.60600769 17.78996674 92.57377075 17.79108459 91.51025391 17.79223633 C90.42559341 17.79720123 89.34093292 17.80216614 88.22340393 17.80728149 C84.6221555 17.82192989 81.02095111 17.8287097 77.41967773 17.83422852 C74.92344664 17.8399779 72.42721556 17.84573566 69.9309845 17.85150146 C65.36146337 17.86067365 60.79195493 17.86697076 56.22242564 17.86999822 C49.49905692 17.87447714 42.77589168 17.89201632 36.05258483 17.92099881 C30.22841693 17.94523295 24.40431684 17.9529432 18.58010292 17.95467377 C16.10294805 17.9577044 13.62579412 17.96574666 11.1486721 17.97885895 C7.68440663 17.99588688 4.22063784 17.99404684 0.75634766 17.98754883 C-0.78289871 18.001371 -0.78289871 18.001371 -2.35324097 18.01547241 C-11.13818491 17.9637751 -11.13818491 17.9637751 -15.06079102 14.63110352 C-16.63014695 11.49239164 -16.41280204 9.0925453 -16.06079102 5.63110352 C-11.80657206 -0.61744777 -6.91023276 -0.07686975 0 0 Z " fill="#000000" transform="translate(210.060791015625,406.368896484375)"/>
<path d="M0 0 C1.10460571 -0.0087616 2.20921143 -0.01752319 3.34729004 -0.02655029 C6.9975516 -0.04855164 10.64660118 -0.03398748 14.296875 -0.01708984 C16.83366122 -0.02045773 19.37044587 -0.02531011 21.90722656 -0.03158569 C27.22347874 -0.03895811 32.5392968 -0.02871626 37.85546875 -0.00488281 C43.99567145 0.0223276 50.135044 0.01351281 56.27522659 -0.01401484 C62.18969871 -0.03946601 68.10391358 -0.03673773 74.01843262 -0.02210617 C76.53186153 -0.0187693 79.04531162 -0.02286903 81.55871582 -0.03450394 C85.07096582 -0.04719428 88.58161902 -0.02785779 92.09375 0 C93.13390259 -0.01012115 94.17405518 -0.02024231 95.24572754 -0.03067017 C99.97440607 0.03886046 102.30219836 0.09893538 106.19628906 2.9647522 C108.62615086 6.4865692 108.73323474 8.45255203 108.046875 12.64697266 C106.17978995 15.01194705 104.72626069 16.30727981 102.046875 17.64697266 C100.55058861 17.74963858 99.04986479 17.79074245 97.5500946 17.8008728 C96.1306102 17.8137735 96.1306102 17.8137735 94.68244934 17.82693481 C93.64086166 17.83119476 92.59927399 17.83545471 91.52612305 17.83984375 C90.43170898 17.84802124 89.33729492 17.85619873 88.2097168 17.86462402 C84.57601475 17.88950445 80.9423518 17.90599994 77.30859375 17.92041016 C76.06998911 17.92573383 74.83138447 17.93105751 73.55524635 17.93654251 C68.35069338 17.95777673 63.1461463 17.97690683 57.9415617 17.9881649 C50.48393862 18.00440291 43.02683665 18.03757691 35.56941003 18.09456575 C29.69291815 18.13794132 23.81658797 18.15391052 17.93995094 18.16029739 C15.44044089 18.16702651 12.94093891 18.18229125 10.44153404 18.2061882 C6.94588722 18.23770597 3.45156137 18.23789603 -0.04418945 18.23046875 C-1.59746193 18.25507675 -1.59746193 18.25507675 -3.18211365 18.28018188 C-7.9077853 18.23900977 -10.20533977 18.19845079 -14.09587097 15.32925415 C-16.55919389 11.77167647 -16.71067536 9.88925466 -15.953125 5.64697266 C-11.66310818 -0.54880054 -6.91114221 -0.06724854 0 0 Z " fill="#000000" transform="translate(209.953125,373.35302734375)"/>
</svg>
