<svg width="10" height="13" viewBox="0 0 10 13" fill="none" xmlns="http://www.w3.org/2000/svg">
<path d="M5.86602 11.5C5.48112 12.1667 4.51887 12.1667 4.13397 11.5L2.40192 8.5C2.01702 7.83333 2.49815 7 3.26795 7L6.73205 7C7.50185 7 7.98298 7.83333 7.59808 8.5L5.86602 11.5Z" fill="#F1601B"/>
<rect width="10" height="10" rx="3" fill="#F1601B"/>
<g clip-path="url(#clip0_47_130)">
<path d="M7.61649 4.88318C7.59765 4.87922 7.57986 4.8755 7.56405 4.87139C7.38476 4.82476 7.30293 4.79921 7.24243 4.68239L7.01324 4.2184C6.93959 4.07621 6.7494 3.96052 6.58928 3.96052H6.18126V3.42472C6.18126 3.32852 6.10299 3.25024 6.00676 3.25024L3.1649 3.2531C3.07127 3.2531 3.00066 3.32751 3.00066 3.42619V3.58455H2.27265C2.12232 3.58457 2 3.70687 2 3.85722C2 4.00757 2.12232 4.12987 2.27265 4.12987H3.00065V4.3912H2.52401C2.37367 4.3912 2.25135 4.51352 2.25135 4.66385C2.25135 4.81419 2.37367 4.93651 2.52401 4.93651H3.00065V5.19784H2.77536C2.62502 5.19784 2.5027 5.32015 2.5027 5.47049C2.5027 5.62083 2.62502 5.74314 2.77536 5.74314H3.00065V6.01647C3.00065 6.11267 3.07892 6.19095 3.17513 6.19095H3.47074C3.51678 6.50647 3.78911 6.74959 4.11724 6.74959C4.44541 6.74959 4.71775 6.50647 4.7638 6.19095H5.96016C5.96638 6.19095 5.97275 6.19053 5.9791 6.19012C6.02479 6.50605 6.29729 6.74959 6.62571 6.74959C6.95387 6.74959 7.22621 6.50647 7.27226 6.19095H7.69687C7.86402 6.19095 8.00001 6.05497 8.00001 5.88784V5.37351C8 4.96365 7.7692 4.91522 7.61649 4.88318ZM6.62571 5.85867C6.75673 5.85867 6.86332 5.96523 6.86332 6.09621C6.86332 6.22719 6.75673 6.33375 6.62571 6.33375C6.49474 6.33375 6.38818 6.22719 6.38818 6.09621C6.38818 5.96523 6.49474 5.85867 6.62571 5.85867ZM6.18126 4.84623V4.21357H6.49307C6.6129 4.21357 6.76074 4.3035 6.81561 4.40938L7.01955 4.82227C7.02387 4.83063 7.02836 4.83859 7.03301 4.84622H6.18126V4.84623ZM4.35486 6.0962C4.35486 6.22717 4.24827 6.33373 4.11724 6.33373C3.98628 6.33373 3.87973 6.22718 3.87973 6.0962C3.87973 5.96522 3.98628 5.85866 4.11724 5.85866C4.24827 5.85867 4.35486 5.96523 4.35486 6.0962Z" fill="white"/>
</g>
<defs>
<clipPath id="clip0_47_130">
<rect width="6" height="6" fill="white" transform="translate(2 2)"/>
</clipPath>
</defs>
</svg>
